<?xml version="1.0" encoding="utf-8"?><svg xmlns="http://www.w3.org/2000/svg" xmlns:xlink="http://www.w3.org/1999/xlink"><symbol fill="none" viewBox="0 0 25 25" id="Telegram" xmlns="http://www.w3.org/2000/svg"><path d="M12.5 25C19.404 25 25 19.404 25 12.5S19.404 0 12.5 0 0 5.596 0 12.5 5.596 25 12.5 25z" fill="#3854A2"/><path fill-rule="evenodd" clip-rule="evenodd" d="M5.734 12.285c3.635-1.584 6.058-2.628 7.27-3.132 3.464-1.44 4.182-1.69 4.652-1.699.103-.002.334.024.482.146.126.102.16.24.178.337.018.097.038.319.021.49-.187 1.972-1 6.757-1.413 8.965-.174.935-.518 1.247-.852 1.278-.724.066-1.273-.478-1.975-.939-1.098-.72-1.718-1.167-2.783-1.868-1.231-.812-.433-1.257.269-1.986.183-.191 3.373-3.092 3.434-3.356.009-.033.016-.156-.058-.221-.073-.065-.18-.043-.258-.026-.11.025-1.863 1.184-5.26 3.476-.497.342-.948.508-1.351.5-.446-.01-1.302-.251-1.939-.458-.78-.254-1.401-.389-1.347-.819.027-.224.337-.455.927-.688h.003z" fill="#fff"/></symbol><symbol fill="none" viewBox="0 0 25 25" id="VK" xmlns="http://www.w3.org/2000/svg"><path d="M12.5 25C19.404 25 25 19.404 25 12.5S19.404 0 12.5 0 0 5.596 0 12.5 5.596 25 12.5 25z" fill="#3854A2"/><path d="M12.958 17.11c-4.848 0-7.612-3.324-7.727-8.853H7.66c.08 4.058 1.87 5.778 3.287 6.133V8.257h2.286v3.5c1.4-.151 2.871-1.745 3.368-3.5h2.286c-.381 2.162-1.976 3.757-3.11 4.413 1.133.531 2.95 1.923 3.641 4.44h-2.516c-.54-1.684-1.887-2.987-3.669-3.165v3.164h-.274z" fill="#fff"/></symbol><symbol fill="none" viewBox="0 0 15 15" id="arrow" xmlns="http://www.w3.org/2000/svg"><circle cx="7.5" cy="7.5" r="7.5" transform="rotate(-90 7.5 7.5)" fill="#fff"/><path d="M7.546 10.546L3 6m4.714 4.546L12.26 6" stroke="#3854A2" stroke-width="2" stroke-miterlimit="10" stroke-linecap="round"/></symbol><symbol fill="none" viewBox="0 0 11 10" id="form-dot" xmlns="http://www.w3.org/2000/svg"><path d="M11 5c-3.143 1.184-4.198 2.143-5.5 5C4.198 7.143 3.143 6.183 0 5c3.143-1.183 4.198-2.143 5.5-5C6.802 2.857 7.857 3.817 11 5z" fill="#E94D4E"/></symbol><symbol fill="none" viewBox="0 0 120 16" id="logo" xmlns="http://www.w3.org/2000/svg"><g clip-path="url(#ea)" fill="#3854A2"><path d="M1.312 9.072H0V6.715h1.354C1.947 2.92 5.249.501 8.677.501c2.668 0 4.826 1.022 6.35 3.044L13.016 5.15c-1.058-1.376-2.434-2.21-4.36-2.21A4.796 4.796 0 004 6.713h11.536v2.252c0 3.21-2.54 6.548-6.9 6.548-3.62 0-6.816-2.524-7.324-6.444v.002zm7.45 4.003c2.138 0 4.212-1.293 4.212-4.003H3.937c.445 2.48 2.433 4.003 4.825 4.003zm8.025-5.067C16.787 3.504 20.343.5 24.322.5c3.978 0 7.534 3.003 7.534 7.507s-3.576 7.507-7.534 7.507c-3.958 0-7.535-2.96-7.535-7.507zm7.535 5.067c2.603 0 4.931-1.94 4.931-5.067 0-3.128-2.328-5.067-4.931-5.067S19.39 4.923 19.39 8.008s2.307 5.067 4.932 5.067zm8.789-5.067C33.111 3.504 36.667.5 40.646.5c3.978 0 7.534 3.003 7.534 7.507s-3.576 7.507-7.535 7.507c-3.958 0-7.534-2.96-7.534-7.507zm7.535 5.067c2.602 0 4.931-1.94 4.931-5.067 0-3.128-2.329-5.067-4.931-5.067-2.603 0-4.932 1.982-4.932 5.067s2.307 5.067 4.931 5.067zm9.87-10.218h-1.588V.501h4.72c4.698 0 6.92 3.504 6.92 7.09s-2.391 7.507-6.92 7.507h-4.72l1.588-12.242v.001zm3.154 9.886c2.772 0 4.297-2.627 4.297-5.172 0-2.398-1.354-4.714-4.297-4.714h-.635l-1.27 9.886h1.905zM67.076.23h2.579v11.165l3.553-8.006h3.012l3.25 7.984V.23h2.58v14.944h-3.662L74.728 6.1l-3.945 9.073H67.08V.229h-.003zm21.099 0h3.012l4.831 14.941h-2.686l-.563-1.942h-5.893l-.52 1.943h-2.643L88.175.229zm3.878 10.587L89.691 2.77l-2.166 8.047h4.528zm4.695 1.858l2.059-1.602c.671 1.132 1.798 2.071 2.967 2.071s1.864-.747 1.864-1.707c0-.876-.542-1.452-1.473-1.921l-1.95-.96c-1.365-.684-2.838-2.03-2.838-4.078 0-2.284 1.799-4.248 4.42-4.248 2.21 0 3.813 1.11 5.005 3.032l-2.059 1.601c-.715-1.345-1.863-2.177-2.946-2.177-1.213 0-1.776.768-1.776 1.623 0 .725.368 1.366 1.409 1.878l2.08 1.024c1.473.726 2.774 2.008 2.774 4.121 0 2.412-1.798 4.27-4.55 4.27-2.145 0-3.835-1.132-4.983-2.925l-.003-.002zm20.674-4.115h-5.33l-1.473 6.382h-2.578l1.473-6.382h-1.473V6.148h2.036L111.508 0h2.578l-1.43 6.148h4.767V0h2.578v14.942h-2.578V8.56h-.001z"/></g><defs><clipPath id="ea"><path fill="#fff" d="M0 0h120v15.6H0z"/></clipPath></defs></symbol><symbol fill="none" viewBox="0 0 22 5" id="services-dots" xmlns="http://www.w3.org/2000/svg"><path d="M1.605 4.133c.887 0 1.606-.701 1.606-1.566C3.21 1.7 2.492 1 1.605 1 .72 1 0 1.701 0 2.567c0 .865.719 1.566 1.605 1.566z" fill="#3854A2"/><path d="M7.869 4.133c.886 0 1.605-.701 1.605-1.566C9.474 1.7 8.755 1 7.869 1c-.887 0-1.606.701-1.606 1.567 0 .865.719 1.566 1.606 1.566z" stroke="#3854A2" stroke-miterlimit="10"/><path d="M14.132 4.133c.886 0 1.605-.701 1.605-1.566C15.737 1.7 15.018 1 14.132 1c-.887 0-1.606.701-1.606 1.567 0 .865.72 1.566 1.606 1.566z" fill="#E94D4D"/><path d="M20.395 4.133c.886 0 1.605-.701 1.605-1.566C22 1.7 21.281 1 20.395 1c-.887 0-1.606.701-1.606 1.567 0 .865.72 1.566 1.606 1.566z" fill="#3854A2"/></symbol><symbol fill="none" viewBox="0 0 25 25" id="whatsapp" xmlns="http://www.w3.org/2000/svg"><path d="M12.5 25C19.404 25 25 19.404 25 12.5S19.404 0 12.5 0 0 5.596 0 12.5 5.596 25 12.5 25z" fill="#3854A2"/><path fill-rule="evenodd" clip-rule="evenodd" d="M16.866 15.59c-.18.512-.9.935-1.472 1.06-.393.082-.904.149-2.628-.566-1.935-.801-4.623-3.658-4.623-5.56 0-.967.558-2.094 1.534-2.094.47 0 .572.01.727.38.18.436.622 1.512.674 1.622.217.453-.22.717-.537 1.111-.102.12-.216.247-.088.468.128.216.569.934 1.216 1.511.838.746 1.516.984 1.76 1.085.18.075.396.058.528-.083.167-.18.375-.48.587-.776.15-.212.339-.238.538-.163.134.046 1.84.838 1.912.965.053.092.053.53-.128 1.04M12.501 5h-.003C8.363 5 5 8.364 5 12.5c0 1.64.529 3.161 1.428 4.395l-.935 2.787 2.883-.92A7.441 7.441 0 0012.5 20c4.136 0 7.5-3.364 7.5-7.5S16.636 5 12.501 5" fill="#fff"/></symbol></svg>