<svg xmlns="http://www.w3.org/2000/svg" width="120" height="16" fill="none"><g fill="#3854A2" clip-path="url(#a)"><path d="M1.312 9.072H0V6.715h1.354C1.947 2.92 5.249.501 8.677.501c2.668 0 4.826 1.022 6.35 3.044L13.016 5.15c-1.058-1.376-2.434-2.21-4.36-2.21A4.796 4.796 0 0 0 4 6.713h11.536v2.252c0 3.21-2.54 6.548-6.9 6.548-3.62 0-6.816-2.524-7.324-6.444v.002Zm7.45 4.003c2.138 0 4.212-1.293 4.212-4.003H3.937c.445 2.48 2.433 4.003 4.825 4.003Zm8.025-5.067C16.787 3.504 20.343.5 24.322.5c3.978 0 7.534 3.003 7.534 7.507s-3.576 7.507-7.534 7.507c-3.958 0-7.535-2.96-7.535-7.507Zm7.535 5.067c2.603 0 4.931-1.94 4.931-5.067 0-3.128-2.328-5.067-4.931-5.067S19.39 4.923 19.39 8.008s2.307 5.067 4.932 5.067Zm8.789-5.067C33.111 3.504 36.667.5 40.646.5c3.978 0 7.534 3.003 7.534 7.507s-3.576 7.507-7.535 7.507c-3.958 0-7.534-2.96-7.534-7.507Zm7.535 5.067c2.602 0 4.931-1.94 4.931-5.067 0-3.128-2.329-5.067-4.931-5.067-2.603 0-4.932 1.982-4.932 5.067s2.307 5.067 4.931 5.067Zm9.87-10.218h-1.588V.501h4.72c4.698 0 6.92 3.504 6.92 7.09s-2.391 7.507-6.92 7.507h-4.72l1.588-12.242v.001Zm3.154 9.886c2.772 0 4.297-2.627 4.297-5.172 0-2.398-1.354-4.714-4.297-4.714h-.635l-1.27 9.886h1.905ZM67.076.23h2.579v11.165l3.553-8.006h3.012l3.25 7.984V.23h2.58v14.944h-3.662L74.728 6.1l-3.945 9.073H67.08V.229h-.003Zm21.099 0h3.012l4.831 14.941h-2.686l-.563-1.942h-5.893l-.52 1.943h-2.643L88.175.229Zm3.878 10.587L89.691 2.77l-2.166 8.047h4.528Zm4.695 1.858 2.059-1.602c.671 1.132 1.798 2.071 2.967 2.071s1.864-.747 1.864-1.707c0-.876-.542-1.452-1.473-1.921l-1.95-.96c-1.365-.684-2.838-2.03-2.838-4.078 0-2.284 1.799-4.248 4.42-4.248 2.21 0 3.813 1.11 5.005 3.032l-2.059 1.601c-.715-1.345-1.863-2.177-2.946-2.177-1.213 0-1.776.768-1.776 1.623 0 .725.368 1.366 1.409 1.878l2.08 1.024c1.473.726 2.774 2.008 2.774 4.121 0 2.412-1.798 4.27-4.55 4.27-2.145 0-3.835-1.132-4.983-2.925l-.003-.002Zm20.674-4.115h-5.33l-1.473 6.382h-2.578l1.473-6.382h-1.473V6.148h2.036L111.508 0h2.578l-1.43 6.148h4.767V0h2.578v14.942h-2.578V8.56h-.001Z"/></g><defs><clipPath id="a"><path fill="#fff" d="M0 0h120v15.6H0z"/></clipPath></defs></svg>