<svg xmlns="http://www.w3.org/2000/svg" width="25" height="25" fill="none"><path fill="#3854A2" d="M12.5 25C19.404 25 25 19.404 25 12.5S19.404 0 12.5 0 0 5.596 0 12.5 5.596 25 12.5 25Z"/><path fill="#fff" fill-rule="evenodd" d="M16.866 15.59c-.18.512-.9.935-1.472 1.06-.393.082-.904.149-2.628-.566-1.935-.801-4.623-3.658-4.623-5.56 0-.967.558-2.094 1.534-2.094.47 0 .572.01.727.38.18.436.622 1.512.674 1.622.217.453-.22.717-.537 1.111-.102.12-.216.247-.088.468.128.216.569.934 1.216 1.511.838.746 1.516.984 1.76 1.085.18.075.396.058.528-.083.167-.18.375-.48.587-.776.15-.212.339-.238.538-.163.134.046 1.84.838 1.912.965.053.092.053.53-.128 1.04M12.501 5h-.003C8.363 5 5 8.364 5 12.5c0 1.64.529 3.161 1.428 4.395l-.935 2.787 2.883-.92A7.441 7.441 0 0 0 12.5 20c4.136 0 7.5-3.364 7.5-7.5S16.636 5 12.501 5" clip-rule="evenodd"/></svg>