<svg xmlns="http://www.w3.org/2000/svg" width="22" height="5" fill="none"><path fill="#3854A2" d="M1.605 4.133c.887 0 1.606-.701 1.606-1.566C3.21 1.7 2.492 1 1.605 1 .72 1 0 1.701 0 2.567c0 .865.719 1.566 1.605 1.566Z"/><path stroke="#3854A2" stroke-miterlimit="10" d="M7.869 4.133c.886 0 1.605-.701 1.605-1.566C9.474 1.7 8.755 1 7.869 1c-.887 0-1.606.701-1.606 1.567 0 .865.719 1.566 1.606 1.566Z"/><path fill="#E94D4D" d="M14.132 4.133c.886 0 1.605-.701 1.605-1.566C15.737 1.7 15.018 1 14.132 1c-.887 0-1.606.701-1.606 1.567 0 .865.72 1.566 1.606 1.566Z"/><path fill="#3854A2" d="M20.395 4.133c.886 0 1.605-.701 1.605-1.566C22 1.7 21.281 1 20.395 1c-.887 0-1.606.701-1.606 1.567 0 .865.72 1.566 1.606 1.566Z"/></svg>