<svg xmlns="http://www.w3.org/2000/svg" width="25" height="25" fill="none"><path fill="#3854A2" d="M12.5 25C19.404 25 25 19.404 25 12.5S19.404 0 12.5 0 0 5.596 0 12.5 5.596 25 12.5 25Z"/><path fill="#fff" fill-rule="evenodd" d="M5.734 12.285c3.635-1.584 6.058-2.628 7.27-3.132 3.464-1.44 4.182-1.69 4.652-1.699.103-.002.334.024.482.146.126.102.16.24.178.337.018.097.038.319.021.49-.187 1.972-1 6.757-1.413 8.965-.174.935-.518 1.247-.852 1.278-.724.066-1.273-.478-1.975-.939-1.098-.72-1.718-1.167-2.783-1.868-1.231-.812-.433-1.257.269-1.986.183-.191 3.373-3.092 3.434-3.356.009-.033.016-.156-.058-.221-.073-.065-.18-.043-.258-.026-.11.025-1.863 1.184-5.26 3.476-.497.342-.948.508-1.351.5-.446-.01-1.302-.251-1.939-.458-.78-.254-1.401-.389-1.347-.819.027-.224.337-.455.927-.688h.003Z" clip-rule="evenodd"/></svg>