<svg width="120" height="16" viewBox="0 0 120 16" fill="none" xmlns="http://www.w3.org/2000/svg">
<g clip-path="url(#clip0_213_2735)">
<path d="M1.31221 9.07168H0V6.71499H1.35385C1.94678 2.91967 5.24885 0.500732 8.67726 0.500732C11.3448 0.500732 13.5026 1.52347 15.0273 3.54491L13.0159 5.15046C11.9578 3.77407 10.5824 2.93947 8.65572 2.93947C6.55963 2.93947 4.52814 4.3781 3.99981 6.71357H15.5355V8.96559C15.5355 12.1767 12.9958 15.5137 8.63562 15.5137C5.01627 15.5137 1.82044 12.9901 1.31221 9.07026V9.07168ZM8.76196 13.0749C10.8997 13.0749 12.9743 11.782 12.9743 9.07168H3.93664C4.3817 11.5529 6.37012 13.0749 8.76196 13.0749Z" fill="#3854A2"/>
<path d="M16.7874 8.00791C16.7874 3.50389 20.3435 0.500732 24.3218 0.500732C28.3001 0.500732 31.8563 3.50389 31.8563 8.00791C31.8563 12.5119 28.28 15.5151 24.3218 15.5151C20.3636 15.5151 16.7874 12.5544 16.7874 8.00791ZM24.3218 13.0749C26.9247 13.0749 29.2534 11.1356 29.2534 8.00791C29.2534 4.88028 26.9247 2.94088 24.3218 2.94088C21.7189 2.94088 19.3902 4.92271 19.3902 8.00791C19.3902 11.0931 21.6974 13.0749 24.3218 13.0749Z" fill="#3854A2"/>
<path d="M33.1111 8.00791C33.1111 3.50389 36.6673 0.500732 40.6455 0.500732C44.6238 0.500732 48.18 3.50389 48.18 8.00791C48.18 12.5119 44.6037 15.5151 40.6455 15.5151C36.6874 15.5151 33.1111 12.5544 33.1111 8.00791ZM40.6455 13.0749C43.2484 13.0749 45.5771 11.1356 45.5771 8.00791C45.5771 4.88028 43.2484 2.94088 40.6455 2.94088C38.0426 2.94088 35.714 4.92271 35.714 8.00791C35.714 11.0931 38.0211 13.0749 40.6455 13.0749Z" fill="#3854A2"/>
<path d="M50.5158 2.85742H48.928V0.500732H53.6471C58.3461 0.500732 60.5685 4.00465 60.5685 7.59061C60.5685 11.1766 58.1766 15.0978 53.6471 15.0978H48.928L50.5158 2.85601V2.85742ZM53.67 12.7425C56.4423 12.7425 57.967 10.1156 57.967 7.57081C57.967 5.17309 56.6132 2.85742 53.67 2.85742H53.0355L51.7649 12.7425H53.67Z" fill="#3854A2"/>
<path d="M67.0764 0.229248H69.6549V11.3945L73.2082 3.38942H76.2203L79.4707 11.3733V0.229248H82.0491V15.1729H78.3882L74.7272 6.09976L70.7833 15.1729H67.0793V0.229248H67.0764Z" fill="#3854A2"/>
<path d="M88.1752 0.229248H91.1873L96.0184 15.1715H93.3322L92.7694 13.2292H86.8759L86.3562 15.1715H83.7131L88.1752 0.229248ZM92.053 10.8174L89.6913 2.76984L87.5249 10.8174H92.053Z" fill="#3854A2"/>
<path d="M96.7478 12.6745L98.8066 11.0732C99.4785 12.2049 100.605 13.1442 101.774 13.1442C102.943 13.1442 103.638 12.3973 103.638 11.4368C103.638 10.5612 103.096 9.98542 102.165 9.51578L100.215 8.55528C98.8496 7.87204 97.3766 6.52677 97.3766 4.47846C97.3766 2.19391 99.1755 0.230469 101.797 0.230469C104.007 0.230469 105.61 1.34091 106.802 3.26192L104.743 4.86322C104.028 3.51796 102.88 2.68618 101.797 2.68618C100.584 2.68618 100.021 3.4543 100.021 4.30871C100.021 5.03439 100.389 5.67519 101.43 6.18727L103.51 7.21143C104.983 7.93711 106.284 9.21872 106.284 11.3321C106.284 13.744 104.486 15.6013 101.734 15.6013C99.589 15.6013 97.8992 14.4696 96.7507 12.6774L96.7478 12.6745Z" fill="#3854A2"/>
<path d="M117.422 8.55963H112.092L110.619 14.9422H108.041L109.514 8.55963H108.041V6.14777H110.077L111.508 0H114.086L112.656 6.14777H117.423V0H120.001V14.9422H117.423V8.55963H117.422Z" fill="#3854A2"/>
</g>
<defs>
<clipPath id="clip0_213_2735">
<rect width="120" height="15.6" fill="white"/>
</clipPath>
</defs>
</svg>
