<svg width="22" height="5" viewBox="0 0 22 5" fill="none" xmlns="http://www.w3.org/2000/svg">
<path d="M1.60536 4.13323C2.49198 4.13323 3.21072 3.43183 3.21072 2.56661C3.21072 1.7014 2.49198 1 1.60536 1C0.718745 1 0 1.7014 0 2.56661C0 3.43183 0.718745 4.13323 1.60536 4.13323Z" fill="#3854A2"/>
<path d="M7.86855 4.13323C8.75516 4.13323 9.47391 3.43183 9.47391 2.56661C9.47391 1.7014 8.75516 1 7.86855 1C6.98193 1 6.26318 1.7014 6.26318 2.56661C6.26318 3.43183 6.98193 4.13323 7.86855 4.13323Z" stroke="#3854A2" stroke-miterlimit="10"/>
<path d="M14.1317 4.13323C15.0183 4.13323 15.7371 3.43183 15.7371 2.56661C15.7371 1.7014 15.0183 1 14.1317 1C13.2451 1 12.5264 1.7014 12.5264 2.56661C12.5264 3.43183 13.2451 4.13323 14.1317 4.13323Z" fill="#E94D4D"/>
<path d="M20.3947 4.13323C21.2813 4.13323 22 3.43183 22 2.56661C22 1.7014 21.2813 1 20.3947 1C19.5081 1 18.7893 1.7014 18.7893 2.56661C18.7893 3.43183 19.5081 4.13323 20.3947 4.13323Z" fill="#3854A2"/>
</svg>
