<svg width="25" height="25" viewBox="0 0 25 25" fill="none" xmlns="http://www.w3.org/2000/svg">
<path d="M12.5 25C19.4036 25 25 19.4036 25 12.5C25 5.59644 19.4036 0 12.5 0C5.59644 0 0 5.59644 0 12.5C0 19.4036 5.59644 25 12.5 25Z" fill="#3854A2"/>
<path fill-rule="evenodd" clip-rule="evenodd" d="M5.73374 12.2847C9.36862 10.701 11.7919 9.65681 13.0047 9.15332C16.4675 7.71263 17.1861 7.46263 17.6558 7.45449C17.7593 7.45216 17.9896 7.47774 18.1384 7.59984C18.264 7.70216 18.2989 7.84053 18.3163 7.93704C18.3337 8.03356 18.3535 8.25565 18.3372 8.42774C18.15 10.3987 17.3372 15.1836 16.9244 17.3917C16.75 18.3266 16.4058 18.6394 16.0721 18.6696C15.3477 18.7359 14.7989 18.1917 14.0965 17.7312C12.9989 17.0115 12.3791 16.5638 11.314 15.8626C10.0826 15.051 10.8814 14.6056 11.5826 13.8766C11.7663 13.6859 14.9558 10.7847 15.0175 10.5208C15.0256 10.4882 15.0326 10.365 14.9593 10.2998C14.8861 10.2347 14.7791 10.2568 14.7012 10.2743C14.5907 10.2987 12.8384 11.458 9.44188 13.7498C8.94421 14.0917 8.49304 14.258 8.08956 14.2498C7.64421 14.2405 6.78839 13.9987 6.15119 13.7917C5.37095 13.5382 4.75002 13.4033 4.80351 12.9731C4.83141 12.7487 5.14071 12.5184 5.73141 12.2847H5.73374Z" fill="white"/>
</svg>
