<svg width="25" height="25" viewBox="0 0 25 25" fill="none" xmlns="http://www.w3.org/2000/svg">
<path d="M12.5 25C19.4036 25 25 19.4036 25 12.5C25 5.59644 19.4036 0 12.5 0C5.59644 0 0 5.59644 0 12.5C0 19.4036 5.59644 25 12.5 25Z" fill="#3854A2"/>
<path d="M12.9579 17.1094C8.11027 17.1094 5.34632 13.7861 5.2312 8.25708H7.65911C7.73934 12.3152 9.52888 14.035 10.9463 14.3896V8.25708H13.2324V11.7571C14.6324 11.6059 16.1033 10.0117 16.5998 8.25708H18.8859C18.5045 10.4187 16.9103 12.0141 15.7754 12.6699C16.9091 13.2013 18.7266 14.5931 19.4172 17.1094H16.901C16.3603 15.4257 15.0138 14.1234 13.2324 13.9455V17.1094H12.9579Z" fill="white"/>
</svg>
