<svg width="25" height="25" viewBox="0 0 25 25" fill="none" xmlns="http://www.w3.org/2000/svg">
<path d="M12.5 25C19.4036 25 25 19.4036 25 12.5C25 5.59644 19.4036 0 12.5 0C5.59644 0 0 5.59644 0 12.5C0 19.4036 5.59644 25 12.5 25Z" fill="#3854A2"/>
<path fill-rule="evenodd" clip-rule="evenodd" d="M16.8659 15.5906C16.6851 16.1021 15.9665 16.5254 15.3936 16.6494C15.0012 16.7324 14.49 16.7987 12.7664 16.0844C10.8306 15.2825 8.14266 12.4257 8.14266 10.5246C8.14266 9.55673 8.70078 8.43001 9.67659 8.43001C10.1461 8.43001 10.2495 8.4392 10.404 8.80963C10.5848 9.24601 11.0258 10.3222 11.0783 10.4324C11.2952 10.8846 10.8578 11.1494 10.5405 11.5434C10.4391 11.6622 10.3246 11.7901 10.4529 12.0106C10.5805 12.2269 11.0215 12.9454 11.6695 13.5222C12.5066 14.2683 13.1854 14.5059 13.4282 14.6073C13.609 14.6821 13.8249 14.6647 13.9571 14.5239C14.1245 14.3431 14.3322 14.0432 14.5438 13.7476C14.6931 13.536 14.8828 13.5097 15.0816 13.5846C15.2158 13.6311 16.922 14.4235 16.9942 14.5502C17.0473 14.6424 17.0473 15.0791 16.8665 15.5906M12.5013 5H12.4977C8.36283 5 5 8.36407 5 12.4998C5 14.1397 5.52892 15.6611 6.42795 16.8955L5.49348 19.6824L8.37562 18.7614C9.56142 19.5462 10.9766 20 12.5013 20C16.6362 20 20 16.6359 20 12.5002C20 8.36439 16.6362 5.00033 12.5013 5.00033" fill="white"/>
</svg>
